<svg width="280" height="64" viewBox="0 0 280 64" fill="none" xmlns="http://www.w3.org/2000/svg">
  <rect width="280" height="64" rx="18" fill="none" />
  <rect width="64" height="64" rx="18" fill="#0F0F0F" />
  <path d="M24 12H40L33.5 21V52H24V12Z" fill="#E8650A" />
  <path d="M26 12H38L31.5 21H26V12Z" fill="#FF7A1A" fill-opacity="0.55" />
  <path d="M91 20H101V46H91V20Z" fill="#F5F5F5"/>
  <path d="M106 20H116V31L125 20H137L126 33L138 46H126L116 35V46H106V20Z" fill="#F5F5F5"/>
  <path d="M141 46V20H151V46H141Z" fill="#F5F5F5"/>
  <path d="M157 46V20H169C174.333 20 178.333 21.1667 181 23.5C183.667 25.8333 185 29.1667 185 33.5C185 37.8333 183.667 41.1667 181 43.5C178.333 45.1667 174.333 46 169 46H157ZM167 38H168.5C170.833 38 172.667 37.5833 174 36.75C175.333 35.9167 176 34.5 176 32.5C176 30.5 175.333 29.0833 174 28.25C172.667 27.4167 170.833 27 168.5 27H167V38Z" fill="#F5F5F5"/>
  <path d="M190 46L200 20H211L221 46H211L209.5 41.5H201.5L200 46H190ZM204 34.5H207.5L205.75 28.5L204 34.5Z" fill="#F5F5F5"/>
  <path d="M224 46V20H234V38H245V46H224Z" fill="#F5F5F5"/>
</svg>
